<svg width="19" height="15" fill="none" xmlns="http://www.w3.org/2000/svg"><path fill-rule="evenodd" clip-rule="evenodd" d="M13.246 2.014v-.89c0-.62-.759-1.124-1.694-1.124H7.447c-.935 0-1.694.504-1.694 1.124v.854l.001.036h-4.64A1.12 1.12 0 0 0 0 3.14v10.737C0 14.496.5 15 1.115 15h16.77A1.12 1.12 0 0 0 19 13.876V3.139c0-.62-.5-1.125-1.115-1.125h-4.64zm-7.6 6.493c0 2.147 1.726 3.887 3.854 3.887 2.129 0 3.855-1.74 3.854-3.887 0-2.145-1.725-3.886-3.854-3.886s-3.855 1.74-3.855 3.886zm6.82.001c0 1.652-1.327 2.99-2.966 2.99-1.638 0-2.965-1.338-2.965-2.99 0-1.652 1.327-2.99 2.965-2.99 1.639 0 2.966 1.338 2.966 2.99z" fill="#4C88F9"/></svg>