<svg width="87" height="68" fill="none" viewBox="-5 -5 87 68" y="66" xmlns="http://www.w3.org/2000/svg"><path fill="#8A9BC2" fillRule="evenodd" d="M60.036 47.371c0 .838-.686 1.517-1.533 1.517H18.898c-.847 0-1.533-.68-1.533-1.517v-2.866c0-.838.686-1.517 1.533-1.517h39.605c.847 0 1.533.679 1.533 1.517v2.866zm9.463-29.67c0 .482-.43 1.241-1.027 1.367l.639 1.16s.55-.922 1.894-.524h.576V17.7h-2.082z" clipRule="evenodd"/><path fill="#C2CDE5" fillRule="evenodd" d="M76.499 17.49c.052 1.02-1.403 2.006-2.852 2.37-2.133.533-4.153-.471-4.153-2.556 0-2.023 1.425-3.068 3.504-2.47 1.433.414 3.45 1.65 3.5 2.655z" clipRule="evenodd"/><path fill="#8A9BC2" fillRule="evenodd" d="M7.183 17.7c0 .483.43 1.242 1.026 1.368l-.64 1.16s-.55-.922-1.893-.524H5.1V17.7h2.083z" clipRule="evenodd"/><path fill="#C2CDE5" fillRule="evenodd" d="M.501 17.49c-.051 1.02 1.403 2.006 2.852 2.37 2.132.533 4.153-.471 4.153-2.556 0-2.023-1.425-3.068-3.504-2.47-1.432.414-3.45 1.65-3.5 2.655z" clipRule="evenodd"/><path fill="#8A9BC2" fillRule="evenodd" d="M63.873 56.223c0 .981.804 1.777 1.795 1.777h5.608c.992 0 1.796-.796 1.796-1.777V39.201c0-.981-.804-1.776-1.796-1.776h-5.608c-.992 0-1.795.795-1.795 1.776v17.022zm-59.796 0c0 .981.804 1.777 1.796 1.777h5.608c.992 0 1.796-.796 1.796-1.777V39.201c0-.981-.804-1.776-1.796-1.776H5.873c-.992 0-1.796.795-1.796 1.776v17.022z" clipRule="evenodd"/><path fill="#C2CDE5" fillRule="evenodd" d="M72.564 25.94c-.383-2.529-2.364-5.374-3.45-7.523-1.086-2.15-5.09-12.264-6.069-14.034-.98-1.77-3.066-3.572-5.622-3.951C54.868.052 43.582 0 38.684 0 33.786 0 22.5.053 19.944.432c-2.555.38-4.641 2.18-5.621 3.95-.98 1.77-4.983 11.886-6.07 14.035-1.085 2.15-3.066 4.994-3.449 7.523s-.255 17.511.383 19.976c.64 2.466 3.003 3.983 4.856 3.983h5.046c1.15 0 1.877-.906 2.02-1.218l.677-1.496c.326-.72 1.27-1.287 2.116-1.287h37.563c.848 0 1.79.567 2.117 1.287l.708 1.564c.197.354.898 1.15 1.98 1.15h5.055c1.853 0 4.217-1.517 4.855-3.983.64-2.465.767-17.447.384-19.976z" clipRule="evenodd"/><mask id="aa" width="69" height="11" x="4" y="39" maskUnits="userSpaceOnUse"><path fill="#fff" fillRule="evenodd" d="M4.64 39.998c.1 2.732.257 5.001.472 5.835.64 2.465 3.003 3.982 4.856 3.982h5.046c1.15 0 1.877-.906 2.02-1.218l.677-1.496c.326-.72 1.27-1.287 2.116-1.287H57.39c.848 0 1.79.567 2.117 1.287l.707 1.564c.198.354.899 1.15 1.98 1.15h5.056c1.853 0 4.217-1.517 4.855-3.983.216-.833.374-3.102.473-5.834H4.64z" clipRule="evenodd"/></mask><g mask="url(#aa)"><path fill="#C2CDE5" fillRule="evenodd" d="M4.64 39.998c.1 2.732.257 5.001.472 5.835.64 2.465 3.003 3.982 4.856 3.982h5.046c1.15 0 1.877-.906 2.02-1.218l.677-1.496c.326-.72 1.27-1.287 2.116-1.287H57.39c.848 0 1.79.567 2.117 1.287l.707 1.564c.198.354.899 1.15 1.98 1.15h5.056c1.853 0 4.217-1.517 4.855-3.983.216-.833.374-3.102.473-5.834H4.64z" clipRule="evenodd"/></g><mask id="ab" width="67" height="10" x="5" y="14" maskUnits="userSpaceOnUse"><path fill="#fff" fillRule="evenodd" d="M71.546 23.006c-.772-1.665-1.818-3.309-2.507-4.673-.307-.608-.848-1.855-1.489-3.37H9.668c-.64 1.515-1.181 2.762-1.49 3.37-.688 1.364-1.733 3.008-2.506 4.673h65.874z" clipRule="evenodd"/></mask><g mask="url(#ab)"><path fill="#C2CDE5" fillRule="evenodd" d="M71.546 23.006c-.772-1.665-1.818-3.309-2.507-4.673-.307-.608-.848-1.855-1.489-3.37H9.668c-.64 1.515-1.181 2.762-1.49 3.37-.688 1.364-1.733 3.008-2.506 4.673h65.874z" clipRule="evenodd"/></g><path fill="#F6F9FF" fillRule="evenodd" d="M63.032 13.824c-.202-.885-2.885-9.272-8.379-9.272H22.2c-5.494 0-8.177 8.387-8.379 9.272-.203.885.521 1.938 2.182 1.938H60.85c1.66 0 2.385-1.053 2.183-1.938z" clipRule="evenodd"/><path fill="#FF666B" fillRule="evenodd" d="M67.078 21.753s-12.425 1.411-12.872 1.464c-.448.053-.767.496-.384 1.254.384.759 2.172 2.845 2.811 3.287.639.443 1.565.917 3.386 1.233 1.82.316 5.717 1.075 6.292 1.233.575.158 1.406-.6 1.502-1.17.095-.569.16-6.037.16-6.432 0-.395-.275-.94-.895-.87z" clipRule="evenodd"/><path stroke="#212C3A" d="M67.078 21.753s-12.425 1.411-12.872 1.464c-.448.053-.767.496-.384 1.254.384.759 2.172 2.845 2.811 3.287.639.443 1.565.917 3.386 1.233 1.82.316 5.717 1.075 6.292 1.233.575.158 1.406-.6 1.502-1.17.095-.569.16-6.037.16-6.432 0-.395-.275-.94-.895-.87"/><path fill="#FF666B" fillRule="evenodd" stroke="#212C3A" d="M9.572 21.753s12.425 1.411 12.872 1.464c.447.053.766.496.383 1.254-.383.759-2.172 2.845-2.81 3.287-.64.443-1.566.917-3.387 1.233-1.82.316-5.717 1.075-6.292 1.233-.575.158-1.405-.6-1.501-1.17-.096-.569-.16-6.037-.16-6.432 0-.395.275-.94.894-.87z" clipRule="evenodd"/><path fill="#8A9BC2" fillRule="evenodd" d="M22.604 37.937c0 .562-.46 1.017-1.027 1.017H11.75a1.023 1.023 0 01-1.029-1.018c0-.561.46-1.017 1.029-1.017h9.827c.567 0 1.027.456 1.027 1.018zm43.952 0c0 .562-.46 1.017-1.029 1.017h-9.826a1.022 1.022 0 01-1.028-1.018c0-.561.46-1.017 1.028-1.017h9.826c.568 0 1.029.456 1.029 1.018z" clipRule="evenodd"/><path fill="#F6F9FF" fillRule="evenodd" d="M30.653 30.425h15.588v-5.138H30.653v5.138z" clipRule="evenodd"/></svg>