<svg width="87" height="68" fill="none" viewBox="-5 -5 87 68" x="107" xmlns="http://www.w3.org/2000/svg"><path fill="#8A9BC2" fillRule="evenodd" d="M69.165 17.7c0 .483-.43 1.242-1.026 1.368l.639 1.16s.55-.922 1.894-.525h.576v-2.002h-2.083z" clipRule="evenodd"/><path fill="#C2CDE5" fillRule="evenodd" d="M76.165 17.49c.052 1.02-1.402 2.006-2.851 2.37-2.133.533-4.153-.471-4.153-2.556 0-2.023 1.424-3.068 3.504-2.47 1.432.414 3.45 1.65 3.5 2.655z" clipRule="evenodd"/><path fill="#8A9BC2" fillRule="evenodd" d="M6.849 17.7c0 .483.43 1.242 1.027 1.368l-.64 1.16s-.55-.922-1.893-.525h-.577v-2.002H6.85z" clipRule="evenodd"/><path fill="#C2CDE5" fillRule="evenodd" d="M.168 17.49c-.052 1.02 1.402 2.006 2.851 2.37 2.133.533 4.153-.471 4.153-2.556 0-2.023-1.424-3.068-3.503-2.47-1.433.414-3.45 1.65-3.501 2.655z" clipRule="evenodd"/><path fill="#8A9BC2" fillRule="evenodd" d="M63.54 56.223c0 .981.803 1.777 1.794 1.777h5.61c.99 0 1.795-.796 1.795-1.777V39.201c0-.981-.804-1.776-1.796-1.776h-5.609c-.991 0-1.795.795-1.795 1.776v17.022zm-59.796 0c0 .981.804 1.777 1.795 1.777h5.61c.99 0 1.795-.796 1.795-1.777V39.201c0-.981-.805-1.776-1.796-1.776H5.54c-.991 0-1.795.795-1.795 1.776v17.022z" clipRule="evenodd"/><path fill="#C2CDE5" fillRule="evenodd" d="M72.23 25.94c-.383-2.529-2.364-5.374-3.45-7.523-1.086-2.15-5.09-12.264-6.069-14.034-.98-1.77-3.066-3.572-5.621-3.951C54.534.052 43.248 0 38.35 0c-4.897 0-16.183.053-18.739.432-2.555.38-4.642 2.18-5.621 3.95-.98 1.77-4.983 11.886-6.07 14.035-1.085 2.15-3.066 4.994-3.45 7.523-.382 2.529-.255 17.511.384 19.977.64 2.465 3.003 3.982 4.855 3.982h57.283c1.852 0 4.216-1.517 4.855-3.983.639-2.465.766-17.447.383-19.976z" clipRule="evenodd"/><mask id="ca" width="69" height="14" x="4" y="36" maskUnits="userSpaceOnUse"><path fill="#fff" fillRule="evenodd" d="M4.139 36.056c.067 4.306.257 8.562.572 9.777.639 2.465 3.003 3.982 4.855 3.982h57.282c1.853 0 4.217-1.517 4.856-3.982.314-1.215.505-5.47.572-9.777H4.138z" clipRule="evenodd"/></mask><g mask="url(#ca)"><path fill="#C2CDE5" fillRule="evenodd" d="M4.139 36.056c.067 4.306.257 8.562.572 9.777.639 2.465 3.003 3.982 4.855 3.982h57.282c1.853 0 4.217-1.517 4.856-3.982.314-1.215.505-5.47.572-9.777H4.138z" clipRule="evenodd"/></g><path fill="#8A9BC2" fillRule="evenodd" d="M68.636 45.502c.365.884-.08 1.616-1.002 1.616H8.451c-.922 0-1.367-.732-1.002-1.616l1.285-3.115c.328-.792 1.274-1.422 2.12-1.422H65.23c.847 0 1.794.63 2.12 1.422l1.286 3.115zM51.967 31.356c-.383-1.138-2.044-2.023-3.705-2.023H28.458c-1.66 0-3.322.885-3.705 2.023-.383 1.138 1.342 5.821 1.98 6.672.64.85 1.342 1.062 3.386 1.062h16.482c2.044 0 2.747-.211 3.386-1.062.639-.85 2.364-5.534 1.98-6.672z" clipRule="evenodd"/><path fill="#F6F9FF" fillRule="evenodd" d="M65.978 16.669c-.319-1.096-3.385-8.83-4.28-10.663-.894-1.834-2.108-2.466-3.002-2.466H17.767c-.894 0-2.108.632-3.002 2.466-.895 1.833-3.961 9.567-4.28 10.663-.32 1.095.191 1.6 1.022 1.6h53.45c.83 0 1.34-.505 1.021-1.6z" clipRule="evenodd"/><path fill="#FFD565" fillRule="evenodd" stroke="#212C3A" d="M55.362 29.396s2.811 3.477 4.217 3.477h8.113c1.278 0 1.597-.759 1.853-1.454.255-.696.383-4.362 0-5.627 0 0-5.686 2.34-14.183 3.604zm-34.127 0s-2.811 3.477-4.217 3.477H8.905c-1.278 0-1.597-.759-1.853-1.454-.255-.696-.383-4.362 0-5.627 0 0 5.686 2.34 14.183 3.604z" clipRule="evenodd"/></svg>