<svg width="107" height="66" fill="none" viewBox="-5 -5 107 66" xmlns="http://www.w3.org/2000/svg"><path fill="#C2CDE5" d="M1.381 1.3H96.07v54.183H1.381V1.299z"/><path fill="#C2CDE5" d="M13.49 41.233h2.297v3.535H13.49z"/><path fill="#F6F9FF" d="M3.042.5C4.942 4.026 13 18.673 15.714 18.893h66.07C84.493 18.668 92.55 4.02 94.457.5H3.042z"/><path fill="#C2CDE5" stroke="#000" d="M96.07 38.38V22.404c0-2.04-1.358-3.69-3.03-3.69H4.41c-1.672 0-3.03 1.65-3.03 3.69V37.99c0 2.47 1.758 4.478 3.93 4.478h87.171c1.98-.008 3.587-1.837 3.587-4.088z"/><path fill="#F6F9FF" d="M96.333 1v16c-1.642-.625-3.134-1.387-3.762-2.225C91.53 13.393 94.113 6.372 96.333 1zm-95 1v16c1.642-.625 3.135-1.387 3.762-2.225C6.137 14.393 3.553 7.372 1.333 2z"/><path fill="#C2CDE5" d="M40.333 24.98c0-6.617-4.084-11.98-9.119-11.98H20.452c-5.04 0-9.119 5.364-9.119 11.98V26h29v-1.02z"/><path fill="#C2CDE5" d="M26.06 16.063v1.3h-3.231v-1.3h3.23z"/><g fill="#8A9BC2"><path fillRule="evenodd" d="M25.688 21.453c0 2.78-2.28 5.038-5.086 5.038s-5.087-2.259-5.087-5.038c0-2.78 2.28-5.038 5.087-5.038s5.086 2.259 5.086 5.038zm-.877-.008c0-2.3-1.887-4.17-4.21-4.17-2.321 0-4.208 1.87-4.208 4.17s1.887 4.169 4.209 4.169c2.322 0 4.209-1.87 4.209-4.17z" clipRule="evenodd"/><path d="M21.471 20.965a.329.329 0 00-.467-.097l-.23.162a.384.384 0 00-.172-.032.448.448 0 00-.452.447v.032l-2.076 1.495 2.347-1.12c.057.023.115.04.18.04a.457.457 0 00.435-.325l.304-.147a.318.318 0 00.131-.455z"/><ellipse cx="20.61" cy="21.477" rx=".574" ry=".569"/><path fillRule="evenodd" d="M38.324 21.453c0 2.78-2.281 5.038-5.087 5.038s-5.087-2.259-5.087-5.038c0-2.78 2.28-5.038 5.087-5.038s5.087 2.259 5.087 5.038zm-.878-.008c0-2.3-1.887-4.17-4.21-4.17-2.321 0-4.208 1.87-4.208 4.17s1.887 4.169 4.209 4.169c2.322 0 4.209-1.87 4.209-4.17z" clipRule="evenodd"/><path d="M33.704 21.534a.522.522 0 00.033-.162.46.46 0 00-.418-.455l-1.526-2.406 1.075 2.65a.48.48 0 00-.058.21c0 .204.131.375.32.432l.058.138c.073.178.287.26.459.17a.33.33 0 00.131-.471l-.074-.106z"/><ellipse cx="33.253" cy="21.364" rx=".55" ry=".544"/></g><path fill="#F6F9FF" d="M53.607 20.852h-7.17c-.581 0-1.052.52-1.052 1.162v3.762c0 .642.47 1.162 1.052 1.162h7.17c.582 0 1.053-.52 1.053-1.162v-3.762c0-.642-.471-1.162-1.053-1.162z"/><path fill="#F6F9FF" d="M46.113 25.776v-3.763c0-.203.147-.365.331-.365h7.17c.185 0 .332.162.332.365v3.763c0 .203-.147.366-.331.366h-7.17c-.185 0-.332-.163-.332-.366z"/><path fill="#C2CDE5" d="M46.12 22.087h7.826v.414H46.12v-.414zm0 .82h7.826v.415H46.12v-.414zm0 .821h7.826v.415H46.12v-.415zm0 .83h7.826v.414H46.12v-.415zm0 .763h7.826v.414H46.12v-.414z"/><path fill="#F6F9FF" d="M64.737 20.852h-7.17c-.581 0-1.052.52-1.052 1.162v3.762c0 .642.471 1.162 1.052 1.162h7.17c.582 0 1.053-.52 1.053-1.162v-3.762c0-.642-.47-1.162-1.053-1.162z"/><path fill="#F6F9FF" d="M57.244 25.776v-3.763c0-.203.147-.365.33-.365h7.17c.185 0 .332.162.332.365v3.763c0 .203-.147.366-.331.366h-7.17c-.184 0-.331-.163-.331-.366z"/><path fill="#C2CDE5" d="M57.25 22.087h7.826v.414h-7.825v-.414zm0 .82h7.826v.415h-7.825v-.414zm0 .821h7.826v.415h-7.825v-.415zm0 .83h7.826v.414h-7.825v-.415zm0 .763h7.826v.414h-7.825v-.414z"/><ellipse cx="6.401" cy="25.459" fill="#F6F9FF" rx="4.176" ry="4.136"/><path fill="#F6F9FF" d="M9.682 25.46c0 .089 0 .178-.008.267a3.232 3.232 0 01-.057.407 3.062 3.062 0 01-.123.414 2.56 2.56 0 01-.18.407 2.728 2.728 0 01-.263.414 3.07 3.07 0 01-.796.764c-.525.357-1.165.569-1.863.569a3.312 3.312 0 01-2.363-.984 2.478 2.478 0 01-.295-.35 2.728 2.728 0 01-.263-.413 3.608 3.608 0 01-.18-.407 3.962 3.962 0 01-.123-.414 3.232 3.232 0 01-.058-.407c-.008-.089-.008-.178-.008-.268v-.146c.008-.138.025-.276.041-.406a3.072 3.072 0 01.304-.919c.074-.146.164-.284.254-.414.107-.146.222-.277.345-.407a3.302 3.302 0 012.314-.943 3.302 3.302 0 012.313.943c.123.122.246.26.345.407.098.13.18.268.254.414.082.163.156.333.205.504.041.138.074.276.099.415a2.2 2.2 0 01.04.406.172.172 0 01.066.146z"/><path d="M9.633 24.906H3.168c.025-.146.057-.284.098-.414h6.26c.05.138.083.276.107.414zm.033.83h-6.54l-.007-.423h6.555l-.008.423zm-.057.398a3.063 3.063 0 01-.124.414H3.307a3.962 3.962 0 01-.123-.414H9.61zm-1.412-3.39H4.604c-.189.123-.361.26-.517.415h4.635l-.525-.414zm1.124 1.244H3.48l.254-.422h5.333l.254.422zm-.008 2.974a2.729 2.729 0 01-.262.415h-5.3a2.73 2.73 0 01-.263-.415h5.825zm-.558.764H4.038c.147.155.32.293.5.415h3.717l.5-.415z" fill="#C2CDE5"/><path fill="#8A9BC2" fillRule="evenodd" d="M10.157 27.109c0-9.126 7.466-16.521 16.672-16.521S43.5 17.983 43.5 27.109c0 9.126-7.466 16.521-16.672 16.521S10.157 36.235 10.157 27.11zm3.315 0c0 7.314 5.98 13.238 13.357 13.238 7.376 0 13.357-5.924 13.357-13.238S34.205 13.871 26.83 13.871c-7.376 0-13.357 5.924-13.357 13.238z" clipRule="evenodd"/><path fill="#000" d="M26.829 10.088c-9.478 0-17.172 7.615-17.172 17.021h1c0-8.845 7.238-16.021 16.172-16.021v-1zM44 27.109c0-9.406-7.695-17.021-17.172-17.021v1C35.763 11.088 43 18.264 43 27.109h1zM26.829 44.13C36.306 44.13 44 36.516 44 27.11h-1c0 8.846-7.238 16.021-16.172 16.021v1zM9.657 27.11c0 9.407 7.694 17.021 17.172 17.021v-1c-8.934 0-16.172-7.175-16.172-16.021h-1zm17.172 12.738c-7.104 0-12.857-5.705-12.857-12.738h-1c0 7.594 6.209 13.738 13.857 13.738v-1zm12.857-12.738c0 7.033-5.753 12.738-12.857 12.738v1c7.648 0 13.857-6.144 13.857-13.738h-1zM26.83 14.371c7.104 0 12.857 5.705 12.857 12.738h1c0-7.594-6.21-13.738-13.857-13.738v1zM13.972 27.109c0-7.033 5.753-12.738 12.857-12.738v-1c-7.648 0-13.857 6.144-13.857 13.738h1z"/><path fill="#8A9BC2" d="M38.824 21.193s1.034 4.063-1.173 3.64c-2.166-.414-5.563-1.706-10.65-1.893v-.008c-.057 0-.115 0-.164.008-.057 0-.115-.008-.164-.008v.008c-5.095.187-8.484 1.48-10.65 1.894-2.215.422-1.173-3.64-1.173-3.64-5.128 2.933-.853 10.921-.853 10.921.426-1.983 1.214-1.828 3.757-.674 4.234 1.918 6.088 11.182 6.088 11.182h5.965s1.854-9.264 6.088-11.182c2.543-1.154 3.331-1.309 3.758.674 0 0 4.283-7.988-.829-10.922z"/><path fill="#8A9BC2" d="M33.811 25.02c-.115-2.145-4.324-2.909-6.81-2.974v-.008h-.344v.008c-2.486.065-6.704.83-6.81 2.974-.132 2.544-.173 9.045 6.81 9.257H27c6.982-.212 6.941-6.713 6.81-9.256z"/><path d="M34.27 26.654s.468 2.78 1.428 2.78h2.363c.517 0 .935-.448.935-1 0 0-.418-1.382-.845-2.154a.681.681 0 00-.59-.365h-2.593c-.386 0-.698.333-.698.74zm-14.883 0s-.467 2.78-1.427 2.78h-2.363c-.517 0-.936-.448-.936-1 0 0 .419-1.382.845-2.154a.681.681 0 01.591-.365h2.593c.385 0 .697.333.697.74z" fill="#C2CDE5"/><ellipse cx="90.157" cy="25.459" fill="#F6F9FF" rx="4.176" ry="4.136"/><path fill="#F6F9FF" d="M93.439 25.46c0 .089 0 .178-.008.267a3.234 3.234 0 01-.058.407 3.048 3.048 0 01-.123.414c-.05.138-.107.276-.18.407a2.73 2.73 0 01-.263.414 3.071 3.071 0 01-.796.764 3.334 3.334 0 01-4.225-.414 2.486 2.486 0 01-.296-.35 2.73 2.73 0 01-.262-.414 3.61 3.61 0 01-.18-.407 3.965 3.965 0 01-.124-.414 3.234 3.234 0 01-.057-.407c-.008-.089-.008-.178-.008-.268v-.146c.008-.138.024-.276.04-.406.025-.147.058-.285.1-.415.057-.179.122-.341.204-.504.074-.146.164-.284.255-.414.106-.146.221-.277.344-.407a3.303 3.303 0 012.314-.943 3.303 3.303 0 012.314.943c.123.122.246.26.344.407.099.13.18.268.255.414.082.163.155.333.205.504.04.138.074.276.098.415.025.13.041.268.041.406.066.049.066.097.066.146z"/><path d="M93.39 24.906h-6.466c.025-.146.058-.284.099-.414h6.26c.049.138.082.276.106.414zm.032.83h-6.53l-.009-.423h6.548l-.009.423zm-.057.398a3.063 3.063 0 01-.123.414h-6.178a3.943 3.943 0 01-.123-.414h6.424zm-1.411-3.39H88.36c-.189.123-.361.26-.517.415h4.636l-.525-.414zm1.124 1.244h-5.842l.254-.422h5.333l.255.422zm-.008 2.974a2.73 2.73 0 01-.263.415h-5.3a2.723 2.723 0 01-.263-.415h5.825zm-.558.764h-4.718c.148.155.32.293.5.415h3.717l.5-.415z" fill="#C2CDE5"/><path fill="#F6F9FF" d="M40.244 55.493H2.1c.89-1.9 2.959-7.177 8.281-7.657 0 0 .442-.04 1.192-.092a17.896 17.896 0 011.782-.21c.456-.04.95-.073 1.472-.1 2.319-.118 5.116-.137 7.162-.098 2.628-.046 8.001-.007 11.041.224.332.026.64.052.913.085.265.033.5.06.692.099.751.053 1.193.092 1.193.092 5.329.48 5.55 5.092 4.416 7.657z"/><path fill="#C2CDE5" d="M14.827 47.435c-3.195 1.993-4.637 6.276-5.337 8.059H8.165c.692-1.757 2.098-5.928 5.19-7.96.456-.04.95-.073 1.472-.1zm19.116.21c.736 2.717-.287 5.888-1.008 7.849h-1.318c.626-1.698 1.914-5 1.413-7.928l.913.08z"/><path fill="#F6F9FF" d="M96 48.422a5.686 5.686 0 00-1.987-.58s-.372-.039-1.006-.091a12.826 12.826 0 00-1.502-.21c-.385-.04-.801-.073-1.242-.1a78.934 78.934 0 00-6.042-.098c-2.217-.046-6.75-.007-9.314.223-.28.027-.54.053-.77.086-.224.033-.423.06-.584.099-.633.052-1.006.092-1.006.092-4.49.473-4.676 5.085-3.726 7.65h27.18v-7.071z"/><path fill="#C2CDE5" d="M90.263 47.435c2.695 1.993 3.912 6.276 4.502 8.059h1.118c-.584-1.757-1.77-5.928-4.378-7.96-.385-.04-.801-.073-1.242-.1zm-15.357.131c-.428 2.934.659 6.23 1.193 7.928h-1.112c-.602-1.96-1.471-5.132-.85-7.849l.77-.079z"/><path fill="#F6F9FF" d="M67.737 55.495H41.356l.271-.542c1.328-2.647 2.013-5.5 2.013-8.386V35.618c0-.916.743-1.66 1.66-1.66h18.493c.917 0 1.66.744 1.66 1.66v11.085c0 2.792.66 5.556 1.947 8.124l.337.669z"/><path fill="#C2CDE5" fillRule="evenodd" d="M46.474 47.865a1.66 1.66 0 011.63-1.343h12.905c.797 0 1.481.565 1.63 1.348l.613 3.2.846 4.425H44.995l.857-4.421.622-3.208z" clipRule="evenodd"/><path fill="#F6F9FF" fillRule="evenodd" d="M57.275 51.217v-.08c0-2.419-1.22-2.82-2.729-2.82-1.51 0-2.729.484-2.729 2.82 0 1.357.027 2.493 1.82 2.761V55.5h1.819v-1.598c1.82-.257 1.82-1.358 1.82-2.685z" clipRule="evenodd"/><rect width="15.465" height="8.076" x="46.814" y="36.651" fill="#C2CDE5" rx=".83"/><rect width="13.645" height="6.282" x="47.724" y="37.548" fill="#F6F9FF" rx=".83"/></svg>