<svg width="24" height="24" viewBox="0 0 24 24" fill="none" xmlns="http://www.w3.org/2000/svg">
<g id="svgexport-7 (34) 1">
<g id="Group">
<path id="Vector" fillRule="evenodd" clipRule="evenodd" d="M3.99999 9.00015C3.90448 8.9079 3.8283 8.79756 3.77589 8.67556C3.72348 8.55355 3.69589 8.42233 3.69474 8.28955C3.69359 8.15677 3.71889 8.02509 3.76917 7.9022C3.81945 7.7793 3.8937 7.66765 3.9876 7.57376C4.08149 7.47986 4.19314 7.40561 4.31604 7.35533C4.43893 7.30505 4.57061 7.27975 4.70339 7.2809C4.83617 7.28205 4.96739 7.30964 5.08939 7.36205C5.2114 7.41446 5.32174 7.49064 5.41399 7.58615L11.293 13.4652C11.4805 13.6526 11.7348 13.7579 12 13.7579C12.2652 13.7579 12.5195 13.6526 12.707 13.4652L18.586 7.58515C18.7736 7.39764 19.0281 7.29235 19.2933 7.29245C19.5586 7.29254 19.813 7.39801 20.0005 7.58565C20.188 7.77329 20.2933 8.02773 20.2932 8.293C20.2931 8.55827 20.1876 8.81264 20 9.00015L12.707 16.2932C12.5195 16.4806 12.2652 16.5859 12 16.5859C11.7348 16.5859 11.4805 16.4806 11.293 16.2932L3.99999 9.00015Z" fill="#B62C17"/>
</g>
</g>
</svg>
