<svg width="24" height="24" viewBox="0 0 24 24" fill="none" xmlns="http://www.w3.org/2000/svg">
<g id="svgexport-7 (34) 1">
<g id="Group">
<path id="Vector" fillRule="evenodd" clipRule="evenodd" d="M20 15.0001C20.0955 15.0923 20.1717 15.2027 20.2241 15.3247C20.2765 15.4467 20.3041 15.5779 20.3053 15.7107C20.3064 15.8435 20.2811 15.9752 20.2308 16.098C20.1806 16.2209 20.1063 16.3326 20.0124 16.4265C19.9185 16.5204 19.8069 16.5946 19.684 16.6449C19.5611 16.6952 19.4294 16.7205 19.2966 16.7193C19.1638 16.7182 19.0326 16.6906 18.9106 16.6382C18.7886 16.5858 18.6783 16.5096 18.586 16.4141L12.707 10.5351C12.5195 10.3476 12.2652 10.2423 12 10.2423C11.7348 10.2423 11.4805 10.3476 11.293 10.5351L5.41401 16.4151C5.22637 16.6026 4.97193 16.7079 4.70666 16.7078C4.44138 16.7077 4.18702 16.6022 3.99951 16.4146C3.812 16.227 3.70671 15.9725 3.70681 15.7072C3.7069 15.442 3.81237 15.1876 4.00001 15.0001L11.293 7.70709C11.4805 7.51962 11.7348 7.41431 12 7.41431C12.2652 7.41431 12.5195 7.51962 12.707 7.70709L20 15.0001Z" fill="#B62C17"/>
</g>
</g>
</svg>
