<svg width="12" height="12" viewBox="0 0 12 12" fill="none" xmlns="http://www.w3.org/2000/svg">
<path d="M7.06093 6.00006L11.7807 1.28031C11.9173 1.13886 11.9929 0.949408 11.9912 0.75276C11.9895 0.556113 11.9106 0.368003 11.7715 0.228947C11.6325 0.089891 11.4444 0.0110145 11.2477 0.0093057C11.0511 0.00759688 10.8616 0.0831926 10.7202 0.219811L6.00043 4.93956L1.28068 0.219811C1.13923 0.0831926 0.949774 0.00759688 0.753127 0.0093057C0.556479 0.0110145 0.368369 0.089891 0.229313 0.228947C0.0902571 0.368003 0.0113806 0.556113 0.00967175 0.75276C0.00796294 0.949408 0.0835587 1.13886 0.220177 1.28031L4.93993 6.00006L0.220177 10.7198C0.148545 10.789 0.0914075 10.8718 0.0521007 10.9633C0.012794 11.0548 -0.00789538 11.1532 -0.00876075 11.2528C-0.00962611 11.3523 0.00935037 11.4511 0.047061 11.5433C0.0847717 11.6354 0.140462 11.7192 0.210881 11.7896C0.281301 11.86 0.365039 11.9157 0.457212 11.9534C0.549384 11.9911 0.648143 12.0101 0.747728 12.0092C0.847312 12.0084 0.945727 11.9877 1.03723 11.9484C1.12873 11.9091 1.21149 11.8519 1.28068 11.7803L6.00043 7.06056L10.7202 11.7803C10.8616 11.9169 11.0511 11.9925 11.2477 11.9908C11.4444 11.9891 11.6325 11.9102 11.7715 11.7712C11.9106 11.6321 11.9895 11.444 11.9912 11.2474C11.9929 11.0507 11.9173 10.8613 11.7807 10.7198L7.06093 6.00006Z" fill="white"/>
</svg>
