<svg width="19" height="14" viewBox="0 0 19 14" fill="none" xmlns="http://www.w3.org/2000/svg">
<g clip-path="url(#clip0_49_20808)">
<path d="M2.64787 4.33292C2.87587 4.49192 3.56187 4.96292 4.70587 5.74592C5.84987 6.52992 6.72587 7.13292 7.33588 7.55592C7.40287 7.60292 7.54488 7.70292 7.76188 7.85892C7.97988 8.01392 8.15987 8.13992 8.30387 8.23592C8.44788 8.33192 8.62187 8.43892 8.82587 8.55792C9.02987 8.67692 9.22287 8.76592 9.40287 8.82592C9.58387 8.88592 9.75087 8.91492 9.90487 8.91492H9.92488C10.0789 8.91492 10.2469 8.88492 10.4269 8.82492C10.6079 8.76592 10.8009 8.67692 11.0049 8.55792C11.2089 8.43892 11.3829 8.33192 11.5259 8.23592C11.6699 8.13992 11.8509 8.01392 12.0689 7.85892C12.2859 7.70292 12.4289 7.60292 12.4949 7.55592L17.1929 4.33292C17.6722 4.0047 18.0871 3.59116 18.4169 3.11292C18.7449 2.63692 18.9089 2.13792 18.9089 1.61492C18.9089 1.17892 18.7489 0.804923 18.4319 0.494923C18.2847 0.344997 18.1087 0.22635 17.9145 0.146102C17.7204 0.0658531 17.512 0.0256562 17.3019 0.0279228H2.52887C2.01187 0.0279228 1.61588 0.199923 1.33788 0.543923C1.06188 0.887923 0.921875 1.31792 0.921875 1.83392C0.921875 2.24992 1.10587 2.70092 1.47387 3.18692C1.84187 3.67292 2.23387 4.05492 2.64787 4.33292Z" fill="#8D94AD"/>
<path d="M17.9049 5.39403C15.7099 6.86203 14.0439 8.00303 12.9069 8.81603C12.5249 9.09403 12.2159 9.31003 11.9779 9.46603C11.6772 9.65354 11.3599 9.81288 11.0299 9.94203C10.6812 10.0942 10.3062 10.1768 9.92587 10.185H9.90588C9.56388 10.185 9.19588 10.104 8.80088 9.94203C8.4709 9.81287 8.15356 9.65353 7.85288 9.46603C7.53809 9.25678 7.22833 9.04005 6.92387 8.81603C6.02187 8.16103 4.35787 7.02103 1.93588 5.39403C1.56294 5.15013 1.22225 4.86018 0.921875 4.53103L0.921875 12.406C0.921875 12.843 1.07888 13.216 1.39388 13.527C1.70788 13.838 2.08587 13.993 2.52787 13.993H17.3029C17.7449 13.993 18.1229 13.838 18.4369 13.527C18.7519 13.217 18.9089 12.843 18.9089 12.407V4.53003C18.6101 4.85696 18.273 5.14771 17.9049 5.39403Z" fill="#8D94AD"/>
</g>
<defs>
<clipPath id="clip0_49_20808">
<rect width="18" height="14" fill="white" transform="translate(0.921875)"/>
</clipPath>
</defs>
</svg>
