<svg width="21" height="20" viewBox="0 0 21 20" fill="none" xmlns="http://www.w3.org/2000/svg">
<path fillRule="evenodd" clipRule="evenodd" d="M14.9638 0H6.87997C5.30033 0.00176454 3.78589 0.630057 2.66891 1.74703C1.55193 2.86401 0.92364 4.37845 0.921875 5.9581L0.921875 14.0419C0.92364 15.6215 1.55193 17.136 2.66891 18.253C3.78589 19.3699 5.30033 19.9982 6.87997 20H14.9638C16.5434 19.9982 18.0579 19.3699 19.1748 18.253C20.2918 17.136 20.9201 15.6215 20.9219 14.0419V5.9581C20.9201 4.37845 20.2918 2.86401 19.1748 1.74703C18.0579 0.630057 16.5434 0.00176454 14.9638 0ZM18.9095 14.0419C18.9095 14.5601 18.8074 15.0731 18.6091 15.5519C18.4109 16.0306 18.1202 16.4656 17.7538 16.8319C17.3874 17.1983 16.9525 17.489 16.4737 17.6873C15.995 17.8856 15.4819 17.9876 14.9638 17.9876H6.87997C5.8335 17.9876 4.82989 17.5719 4.08993 16.8319C3.34996 16.092 2.93426 15.0884 2.93426 14.0419V5.9581C2.93426 4.91163 3.34996 3.90802 4.08993 3.16805C4.82989 2.42809 5.8335 2.01238 6.87997 2.01238H14.9638C15.4819 2.01238 15.995 2.11444 16.4737 2.31273C16.9525 2.51102 17.3874 2.80166 17.7538 3.16805C18.1202 3.53445 18.4109 3.96942 18.6091 4.44814C18.8074 4.92685 18.9095 5.43994 18.9095 5.9581V14.0419ZM10.9219 4.82762C9.55054 4.82913 8.2358 5.37456 7.26612 6.34424C6.29644 7.31393 5.75101 8.62866 5.74949 10C5.75126 11.3713 6.29677 12.6859 7.2664 13.6555C8.23603 14.6251 9.55062 15.1706 10.9219 15.1724C12.2931 15.1706 13.6077 14.6251 14.5774 13.6555C15.547 12.6859 16.0925 11.3713 16.0943 10C16.0927 8.62866 15.5473 7.31393 14.5776 6.34424C13.6079 5.37456 12.2932 4.82913 10.9219 4.82762ZM10.9219 13.161C10.0835 13.161 9.27954 12.8279 8.68674 12.2351C8.09395 11.6423 7.76092 10.8383 7.76092 10C7.76092 9.16166 8.09395 8.35766 8.68674 7.76487C9.27954 7.17208 10.0835 6.83905 10.9219 6.83905C11.7602 6.83905 12.5642 7.17208 13.157 7.76487C13.7498 8.35766 14.0828 9.16166 14.0828 10C14.0828 10.8383 13.7498 11.6423 13.157 12.2351C12.5642 12.8279 11.7602 13.161 10.9219 13.161ZM16.1047 6.10571C16.4335 6.10571 16.7488 5.97512 16.9812 5.74267C17.2137 5.51021 17.3443 5.19493 17.3443 4.86619C17.3443 4.53745 17.2137 4.22217 16.9812 3.98971C16.7488 3.75726 16.4335 3.62667 16.1047 3.62667C15.776 3.62667 15.4607 3.75726 15.2283 3.98971C14.9958 4.22217 14.8652 4.53745 14.8652 4.86619C14.8652 5.19493 14.9958 5.51021 15.2283 5.74267C15.4607 5.97512 15.776 6.10571 16.1047 6.10571Z" fill="#8D94AD"/>
</svg>
