<svg width="15" height="15" viewBox="0 0 15 15" fill="none" xmlns="http://www.w3.org/2000/svg">
<g clip-path="url(#clip0_49_294)">
<g clip-path="url(#clip1_49_294)">
<path d="M8.25 3.75H6.75V6.75H3.75V8.25H6.75V11.25H8.25V8.25H11.25V6.75H8.25V3.75ZM7.5 0C3.375 0 0 3.375 0 7.5C0 11.625 3.375 15 7.5 15C11.625 15 15 11.625 15 7.5C15 3.375 11.625 0 7.5 0ZM7.5 13.5C4.2 13.5 1.5 10.8 1.5 7.5C1.5 4.2 4.2 1.5 7.5 1.5C10.8 1.5 13.5 4.2 13.5 7.5C13.5 10.8 10.8 13.5 7.5 13.5Z" fill="white"/>
</g>
</g>
<defs>
<clipPath id="clip0_49_294">
<rect width="15" height="15" fill="white"/>
</clipPath>
<clipPath id="clip1_49_294">
<rect width="15" height="15" fill="white"/>
</clipPath>
</defs>
</svg>
