<svg width="24" height="24" viewBox="0 0 24 24" fill="none" xmlns="http://www.w3.org/2000/svg">
<g id="svgexport-7 (35) 1">
<g id="Group">
<path id="Vector" d="M22.35 10.875C22.35 9.15003 21.15 7.65003 19.5 7.27503V3.37503C19.5 2.70003 18.825 2.25003 18.225 2.47503L10.275 5.25003L9.14998 5.40003V15.375L10.275 15.525L18.225 18.3C18.825 18.525 19.5 18.075 19.5 17.4V14.475C21.15 14.1 22.35 12.6 22.35 10.875ZM19.5 12.525V9.30003C20.025 9.60003 20.475 10.2 20.475 10.95C20.475 11.55 20.1 12.15 19.5 12.525ZM9.97498 17.4H9.89997L4.49998 16.725L5.24998 19.8C5.47498 20.625 6.22498 21.225 7.04998 21.225H9.52498C10.125 21.225 10.575 20.7 10.425 20.1L9.97498 17.4ZM7.34998 5.62503L4.19998 6.00003C2.77498 6.15003 1.72498 7.35003 1.72498 8.77503V12C1.72498 13.425 2.77498 14.625 4.19998 14.775L7.34998 15.15V5.62503Z" fill="white"/>
</g>
</g>
</svg>
