<svg width="19" height="18" viewBox="0 0 19 18" fill="none" xmlns="http://www.w3.org/2000/svg">
<g clip-path="url(#clip0_49_20804)">
<path d="M18.4486 12.1231C18.4689 12.2066 18.4553 12.2918 18.4088 12.3715C18.3623 12.4511 18.2844 12.5228 18.1817 12.5805L15.6511 14.0893C15.5368 14.1656 15.3886 14.231 15.2043 14.2837C15.0336 14.3346 14.8507 14.3694 14.6622 14.3867C14.6495 14.3867 14.6114 14.3892 14.5478 14.393C14.4658 14.3969 14.3835 14.3989 14.3011 14.3987C14.0597 14.3987 13.669 14.3733 13.1301 14.3244C12.5911 14.2742 11.9315 14.1529 11.1522 13.9585C10.3718 13.7641 9.48667 13.4718 8.49773 13.0837C7.50878 12.6949 6.45526 12.1612 5.33926 11.4827C4.45196 10.9567 3.71608 10.4535 3.13267 9.97326C2.60955 9.55047 2.13887 9.1052 1.72443 8.64105C1.4065 8.28544 1.13908 7.91439 0.92502 7.53183C0.769029 7.25178 0.648337 6.96509 0.563961 6.67418C0.507062 6.4875 0.481523 6.29787 0.487726 6.10813C0.495585 6.03195 0.501939 5.9557 0.506785 5.87943C0.535456 5.76611 0.593324 5.65616 0.678314 5.55352C0.767255 5.44298 0.874197 5.3534 1.00126 5.28479L3.53184 3.7639C3.6097 3.71366 3.7039 3.67354 3.80861 3.64601C3.91333 3.61847 4.02634 3.60411 4.14067 3.6038C4.29826 3.60245 4.45212 3.63263 4.57796 3.68957C4.70502 3.74674 4.81302 3.81663 4.90196 3.90112L6.93702 6.22249C7.05119 6.34403 7.08519 6.48686 7.03231 6.62272C6.98149 6.76757 6.87349 6.88954 6.70937 6.98865L5.77761 7.54898C5.74601 7.57039 5.72285 7.5958 5.70984 7.62331C5.69332 7.65087 5.68403 7.6798 5.68231 7.70907C5.73208 7.86917 5.84643 8.05213 6.02431 8.25797C6.17678 8.44093 6.41078 8.66392 6.72843 8.92693C7.04608 9.18994 7.49608 9.49234 8.07949 9.8354C8.6502 10.1867 9.15737 10.4593 9.60102 10.6537C9.95348 10.8132 10.3255 10.9565 10.7138 11.0825C11.0124 11.174 11.2401 11.2286 11.3989 11.2477L11.6371 11.2763C11.6796 11.2741 11.7213 11.2683 11.761 11.2591C11.8064 11.2514 11.8484 11.2377 11.8838 11.2191L12.9691 10.5558C13.187 10.4363 13.4723 10.371 13.7675 10.3729C13.9835 10.3729 14.155 10.3957 14.281 10.4415H14.3001L17.9721 11.7451C18.2389 11.8448 18.3977 11.9706 18.4486 12.1231Z" fill="#8D94AD"/>
</g>
<defs>
<clipPath id="clip0_49_20804">
<rect width="18" height="18" fill="white" transform="translate(0.484375)"/>
</clipPath>
</defs>
</svg>
